<?xml version="1.0" standalone="no"?>
<!DOCTYPE svg PUBLIC "-//W3C//DTD SVG 1.1//EN" "http://www.w3.org/Graphics/SVG/1.1/DTD/svg11.dtd" >
<svg>
<metadata>
Created by FontForge 20090914 at Sat Dec 20 22:40:47 2014
 By www-data
Copyright &#194;&#169; 1999 by Samuel Reynolds. All rights reserved.
</metadata>
<defs>
<font id="LCDMonoNormal" horiz-adv-x="512" >
  <font-face 
    font-family="LCDMono"
    font-weight="400"
    font-stretch="normal"
    units-per-em="1000"
    panose-1="0 0 4 9 0 0 0 0 0 0"
    ascent="800"
    descent="-200"
    x-height="800"
    cap-height="800"
    bbox="-19 -42 531 842"
    underline-thickness="20"
    underline-position="-123"
    unicode-range="U+0020-U+2010"
  />
<missing-glyph 
d="M64 0v800h384v-800h-384zM128 64h256v672h-256v-672z" />
    <glyph glyph-name=".notdef" 
d="M64 0v800h384v-800h-384zM128 64h256v672h-256v-672z" />
    <glyph glyph-name="space" unicode=" " 
 />
    <glyph glyph-name="exclam" unicode="!" 
d="M305 449l-48 -41l-36 41l44 309l47 42l36 -42zM261 141l-47 -42l-36 42l29 210l48 41l36 -41zM247 42l-47 -42l-36 42l48 42z" />
    <glyph glyph-name="quotedbl" unicode="&#x22;" 
d="M233 610l-42 -36l-32 36l14 97l41 36l32 -36zM339 610l-41 -36l-32 36l13 97l42 36l32 -36z" />
    <glyph glyph-name="dollar" unicode="$" 
d="M516 664l-47 -42l-36 42l6 45l48 42l36 -42zM480 758l-47 -42h-83l-42 49l-56 -49h-83l-35 42l47 42h263zM305 449l-48 -41l-36 41l37 260l47 42l36 -42zM430 400l-48 -42h-83l-35 42l47 42h83zM124 449l-47 -41l-36 41l36 260l48 42l36 -42zM436 91l-48 -42l-36 42
l37 260l47 41l36 -41zM248 400l-47 -42h-83l-36 42l48 42h83zM254 91l-47 -42l-36 42l36 260l48 41l36 -41zM380 42l-48 -42h-263l-36 42l48 42h82l42 -49l56 49h83zM73 91l-48 -42l-36 42l7 45l47 42l36 -42z" />
    <glyph glyph-name="quotesingle" unicode="'" 
d="M290 606l-47 -42l-35 42l14 99l47 41l35 -41z" />
    <glyph glyph-name="parenleft" unicode="(" 
d="M394 758l-48 -42h-49l-36 42l48 42h49zM252 449l-50 -44h-40l43 304l47 42l36 -42zM201 91l-47 -42l-36 42l42 304h40l38 -44zM294 42l-48 -42h-50l-36 42l48 42h50z" />
    <glyph glyph-name="parenright" unicode=")" 
d="M352 758l-48 -42h-50l-36 42l48 42h50zM394 709l-42 -304h-40l-38 44l37 260l47 42zM307 91l-47 -42l-36 42l36 260l50 44h40zM251 42l-48 -42h-49l-36 42l48 42h49z" />
    <glyph glyph-name="asterisk" unicode="*" 
d="M343 428l-26 -23h-55l8 56l35 23h46zM334 363l-6 -46h-46l-30 23l8 56h56zM260 461l-8 -56h-56l-19 23l7 56h46zM250 395l-8 -55l-35 -23h-46l6 46l28 32h55z" />
    <glyph glyph-name="plus" unicode="+" 
d="M304 449l-47 -42l-35 42l10 76l47 41l36 -41zM418 400l-47 -41h-72l-36 41l48 41h71zM249 400l-48 -41h-71l-36 41l47 41h72zM280 275l-47 -41l-36 41l11 76l47 42l35 -42z" />
    <glyph glyph-name="comma" unicode="," 
d="M301 43l-96 -84l18 125l48 42l36 -42z" />
    <glyph glyph-name="period" unicode="." 
d="M295 43l-48 -42l-36 42l6 41l48 42l36 -42z" />
    <glyph glyph-name="slash" unicode="/" 
d="M521 731l-216 -326h-43l13 95l199 300h57zM237 300l-199 -300h-57l10 69l216 326h43z" />
    <glyph glyph-name="zero" unicode="0" 
d="M124 449l-48 -41l-36 41l37 260l47 42l36 -42zM73 91l-47 -42l-36 42l36 260l48 41l36 -41zM379 42l-48 -42h-263l-36 42l48 42h263zM435 91l-47 -42l-36 42l36 260l48 41l36 -41zM486 449l-48 -41l-36 41l37 260l47 42l36 -42zM480 758l-48 -42h-263l-36 42l48 42h263z
" />
    <glyph glyph-name="one" unicode="1" 
d="M312 449l-47 -42l-35 42l43 310l47 41l36 -41zM240 625l-51 -43l-33 38l6 41l94 83zM255 41l-47 -41l-36 38l44 313l47 42l36 -42z" />
    <glyph glyph-name="two" unicode="2" 
d="M160 664l-48 -42l-36 42l6 45l48 42l36 -42zM486 758l-48 -42h-263l-36 42l48 42h263zM492 449l-48 -41l-36 41l36 260l48 42l36 -42zM436 400l-47 -42h-265l-36 42l48 42h265zM79 91l-95 -83l48 345l48 42l36 -42zM422 0h-432l96 84h264z" />
    <glyph glyph-name="three" unicode="3" 
d="M479 449l-47 -41l-36 41l36 260l48 42l36 -42zM473 758l-47 -42h-293l-36 42l48 42h292zM423 400l-48 -42h-234l-36 42l47 42h235zM429 91l-48 -42l-36 42l37 260l47 41l36 -41zM373 42l-48 -42h-293l-36 42l48 42h293z" />
    <glyph glyph-name="four" unicode="4" 
d="M457 449l-48 -41l-36 41l44 309l48 42l35 -42zM95 449l-48 -41l-35 41l37 265l47 42l36 -42zM401 400l-48 -42h-264l-36 42l47 42h265zM400 42l-48 -42l-36 42l44 309l47 41l36 -41z" />
    <glyph glyph-name="five" unicode="5" 
d="M525 800l-95 -84h-264l-72 84h431zM122 449l-50 -44h-41l54 387l73 -85zM433 91l-47 -42l-36 42l36 260l48 41l36 -41zM427 400l-47 -42h-265l-36 42l48 42h264zM376 42l-48 -42h-263l-36 42l48 42h263zM70 91l-47 -42l-36 42l6 45l48 42l35 -42z" />
    <glyph glyph-name="six" unicode="6" 
d="M501 758l-48 -42h-263l-36 42l48 42h263zM145 449l-50 -44h-40l43 304l48 42l35 -42zM95 91l-48 -42l-36 42l43 304h39l38 -44zM400 42l-47 -42h-264l-36 42l48 42h263zM457 91l-48 -42l-36 42l36 260l48 41l36 -41zM451 400l-48 -42h-264l-36 42l47 42h265z" />
    <glyph glyph-name="seven" unicode="7" 
d="M505 758l-47 -42h-339l-36 42l48 42h339zM432 556l-102 -151h-43l12 85l144 216h10zM262 305l-199 -305h-56l9 69l216 326h43z" />
    <glyph glyph-name="eight" unicode="8" 
d="M124 449l-48 -41l-36 41l37 260l47 42l36 -42zM73 91l-47 -42l-36 42l36 260l48 41l36 -41zM379 42l-48 -42h-263l-36 42l48 42h263zM435 91l-47 -42l-36 42l36 260l48 41l36 -41zM486 449l-48 -41l-36 41l37 260l47 42l36 -42zM480 758l-48 -42h-263l-36 42l48 42h263z
M429 400l-47 -42h-265l-36 42l48 42h264z" />
    <glyph glyph-name="nine" unicode="9" 
d="M358 42l-48 -42h-263l-36 42l48 42h263zM414 91l-48 -42l-35 42l36 260l50 44h40zM501 709l-43 -304h-39l-38 44l36 260l48 42zM459 758l-48 -42h-263l-36 42l47 42h264zM103 449l-48 -41l-36 41l36 260l48 42l36 -42zM409 400l-47 -42h-265l-36 42l48 42h264z" />
    <glyph glyph-name="colon" unicode=":" 
d="M313 294l-48 -42l-36 42l6 41l47 42l36 -42zM277 42l-47 -42l-36 42l5 41l48 42l36 -42z" />
    <glyph glyph-name="semicolon" unicode=";" 
d="M318 294l-47 -42l-36 42l6 41l47 42l36 -42zM283 43l-95 -84l17 125l48 42l36 -42z" />
    <glyph glyph-name="less" unicode="&#x3c;" 
d="M331 576l-109 -171h-48l12 85l155 230h11zM262 80h-11l-91 230l12 85h48l62 -171z" />
    <glyph glyph-name="equal" unicode="=" 
d="M455 398l-48 -42h-264l-36 42l47 42h265zM405 42l-48 -42h-264l-36 42l48 42h264z" />
    <glyph glyph-name="greater" unicode="&#x3e;" 
d="M340 405h-48l-62 171l20 144h11l91 -230zM326 310l-155 -230h-11l21 144l109 171h48z" />
    <glyph glyph-name="question" unicode="?" 
d="M406 761l-50 -45h-259l-36 42l48 42h263zM414 449l-48 -41l-40 46l36 255l51 44l38 -44zM358 400l-48 -42h-83l-36 42l54 47h73zM189 141l-47 -42l-36 42l29 210l48 41l36 -41zM175 42l-47 -42l-36 42l47 42z" />
    <glyph glyph-name="A" unicode="A" 
d="M68 42l-47 -42l-36 42l49 353h40l38 -44zM127 449l-50 -44h-41l42 303l49 43l36 -42zM484 758l-48 -42h-263l-36 42l48 42h263zM485 405h-41l-38 44l37 260l47 42l37 -43zM483 395l-49 -353l-48 -42l-36 42l44 309l50 44h39zM434 400l-48 -42h-264l-36 42l47 42h265z" />
    <glyph glyph-name="B" unicode="B" 
d="M79 91l-96 -83l55 387h39l38 -44zM129 449l-50 -44h-40l55 387l72 -83zM486 758l-47 -42h-265l-72 84h348zM492 449l-48 -41l-35 41l36 260l48 42l36 -42zM442 91l-48 -42l-36 42l37 260l47 41l36 -41zM386 42l-48 -42h-348l95 84h265zM436 400l-48 -42h-264l-36 42
l48 42h264z" />
    <glyph glyph-name="C" unicode="C" 
d="M516 664l-48 -42l-36 42l7 45l47 42l36 -42zM480 758l-48 -42h-263l-36 42l48 42h263zM124 449l-50 -44h-40l43 304l47 42l36 -42zM73 91l-47 -42l-36 42l42 304h40l38 -44zM379 42l-48 -42h-263l-36 42l48 42h263zM435 91l-47 -42l-36 42l6 45l48 42l36 -42z" />
    <glyph glyph-name="D" unicode="D" 
d="M129 449l-50 -44h-40l55 387l72 -83zM79 91l-96 -83l55 387h39l38 -44zM386 42l-48 -42h-348l95 84h265zM442 91l-48 -42l-36 42l37 260l50 44h40zM529 709l-43 -304h-40l-37 44l36 260l48 42zM486 758l-47 -42h-265l-72 84h348z" />
    <glyph glyph-name="E" unicode="E" 
d="M501 758l-48 -42h-263l-36 42l48 42h263zM145 449l-50 -44h-40l43 304l48 42l35 -42zM95 91l-48 -42l-36 42l43 304h39l38 -44zM400 42l-47 -42h-264l-36 42l48 42h263zM391 400l-47 -42h-205l-36 42l47 42h205z" />
    <glyph glyph-name="F" unicode="F" 
d="M504 758l-47 -42h-263l-36 42l47 42h263zM148 449l-50 -44h-39l42 304l48 42l36 -42zM395 400l-48 -42h-205l-36 42l48 42h205zM91 42l-47 -42l-36 42l49 353h40l38 -44z" />
    <glyph glyph-name="G" unicode="G" 
d="M499 758l-48 -42h-263l-36 42l48 42h263zM143 449l-50 -44h-40l43 304l48 42l36 -42zM93 91l-48 -42l-36 42l43 304h39l38 -44zM398 42l-47 -42h-264l-35 42l47 42h263zM455 91l-48 -42l-36 42l36 260l96 83zM496 442l-95 -84h-83l-36 42l48 42h166z" />
    <glyph glyph-name="H" unicode="H" 
d="M529 758l-49 -353h-40l-38 44l43 309l48 42zM124 449l-50 -44h-40l50 353l47 42l36 -42zM429 400l-47 -42h-265l-36 42l48 42h264zM428 42l-47 -42l-36 42l43 309l50 44h40zM67 42l-48 -42l-36 42l49 353h40l38 -44z" />
    <glyph glyph-name="I" unicode="I" 
d="M305 449l-48 -41l-36 41l44 309l47 42l36 -42zM247 42l-47 -42l-36 42l43 309l48 41l36 -41z" />
    <glyph glyph-name="J" unicode="J" 
d="M526 758l-49 -353h-40l-38 44l44 309l47 42zM432 91l-47 -42l-36 42l36 260l50 44h40zM375 42l-48 -42h-263l-36 42l48 42h263zM69 91l-47 -42l-36 42l6 45l48 42l36 -42z" />
    <glyph glyph-name="K" unicode="K" 
d="M519 726l-220 -321h-41l-29 34l249 361h52zM123 449l-50 -44h-40l50 353l48 42l36 -42zM247 400l-47 -42h-83l-36 42l48 42h82zM417 0h-51l-148 361l38 34h42l130 -321zM66 42l-48 -42l-36 42l50 353h40l37 -44z" />
    <glyph glyph-name="L" unicode="L" 
d="M195 449l-50 -44h-39l49 353l48 42l36 -42zM145 91l-48 -42l-36 42l43 304h40l37 -44zM451 42l-48 -42h-263l-36 42l48 42h263z" />
    <glyph glyph-name="M" unicode="M" 
d="M529 758l-49 -353h-40l-38 44l43 309l48 42zM407 561l-107 -156h-39l13 90l144 216h10zM251 405h-38l-64 156l21 150h10l83 -216zM124 449l-50 -44h-40l50 353l47 42l36 -42zM428 42l-47 -42l-36 42l43 309l50 44h40zM67 42l-48 -42l-36 42l49 353h40l38 -44z" />
    <glyph glyph-name="N" unicode="N" 
d="M529 758l-49 -353h-40l-38 44l43 309l48 42zM392 451h-54l-176 204l12 81h38l189 -219zM124 449l-50 -44h-40l50 353l47 42l36 -42zM428 42l-47 -42l-36 42l43 309l50 44h40zM67 42l-48 -42l-36 42l49 353h40l38 -44z" />
    <glyph glyph-name="O" unicode="O" 
d="M124 449l-50 -44h-40l43 304l47 42l36 -42zM73 91l-47 -42l-36 42l42 304h40l38 -44zM522 709l-42 -304h-40l-38 44l37 260l47 42zM435 91l-47 -42l-36 42l36 260l50 44h40zM379 42l-48 -42h-263l-36 42l48 42h263zM480 758l-48 -42h-263l-36 42l48 42h263z" />
    <glyph glyph-name="P" unicode="P" 
d="M490 449l-47 -41l-36 41l36 260l48 42l36 -42zM484 758l-47 -42h-265l-72 84h348zM127 449l-50 -44h-40l55 387l72 -83zM434 400l-48 -42h-264l-36 42l48 42h264zM69 42l-48 -42l-36 42l50 353h39l38 -44z" />
    <glyph glyph-name="Q" unicode="Q" 
d="M124 449l-50 -44h-40l43 304l47 42l36 -42zM73 91l-47 -42l-36 42l42 304h40l38 -44zM522 709l-42 -304h-40l-38 44l37 260l47 42zM435 91l-47 -42l-36 42l36 260l50 44h40zM379 42l-48 -42h-263l-36 42l48 42h263zM480 758l-48 -42h-263l-36 42l48 42h263zM340 95
l-67 142l17 120h15l55 -119z" />
    <glyph glyph-name="R" unicode="R" 
d="M490 449l-47 -41l-36 41l36 260l48 42l36 -42zM484 758l-47 -42h-265l-72 84h348zM127 449l-50 -44h-40l55 387l72 -83zM434 400l-48 -42h-264l-36 42l48 42h264zM427 0h-71l-239 300l7 47h68l241 -303zM69 42l-48 -42l-36 42l50 353h39l38 -44z" />
    <glyph glyph-name="S" unicode="S" 
d="M516 664l-47 -42l-36 42l6 45l48 42l36 -42zM480 758l-47 -42h-264l-35 42l47 42h263zM124 449l-47 -41l-36 41l36 260l48 42l36 -42zM430 400l-48 -42h-264l-36 42l48 42h264zM436 91l-48 -42l-36 42l37 260l47 41l36 -41zM378 42l-47 -42h-263l-36 42l47 42h264zM73 91
l-48 -42l-36 42l7 45l47 42l36 -42z" />
    <glyph glyph-name="T" unicode="T" 
d="M469 758l-48 -42h-122l-42 49l-56 -49h-122l-36 42l48 42h342zM254 449l-48 -41l-36 41l37 260l47 42l36 -42zM197 42l-48 -42l-36 42l43 309l48 41l36 -41z" />
    <glyph glyph-name="U" unicode="U" 
d="M120 449l-50 -44h-39l49 353l48 42l36 -42zM70 91l-48 -42l-36 42l43 304h40l37 -44zM376 42l-48 -42h-263l-36 42l47 42h264zM432 91l-48 -42l-36 42l37 260l50 44h40zM526 758l-50 -353h-40l-37 44l43 309l48 42z" />
    <glyph glyph-name="V" unicode="V" 
d="M508 758l-49 -353h-65l-14 34l45 319l47 42zM102 439l-24 -34h-65l50 353l48 42l36 -42zM450 345l-228 -345h-38l15 104l187 291h71zM173 0h-38l-131 345l7 50h71l106 -291z" />
    <glyph glyph-name="W" unicode="W" 
d="M529 758l-49 -353h-40l-38 44l43 309l48 42zM124 449l-50 -44h-40l50 353l47 42l36 -42zM428 42l-47 -42l-36 42l43 309l50 44h40zM341 89h-10l-84 216l13 90h38l64 -156zM237 305l-144 -216h-10l21 150l107 156h38zM67 42l-48 -42l-36 42l49 353h40l38 -44z" />
    <glyph glyph-name="X" unicode="X" 
d="M520 726l-210 -321h-48l13 90l199 305h57zM251 405h-48l-120 321l11 74h56l114 -305zM418 0h-56l-114 305l13 90h48l120 -321zM237 305l-199 -305h-57l11 74l210 321h48z" />
    <glyph glyph-name="Y" unicode="Y" 
d="M475 741l-212 -336h-53l12 85l195 310h67zM199 405h-53l-118 336l9 59h66l108 -310zM195 42l-47 -42l-36 42l43 309l48 41l36 -41z" />
    <glyph glyph-name="Z" unicode="Z" 
d="M490 758l-47 -42h-274l-35 42l47 42h273zM424 570l-119 -165h-43l13 90l148 211h20zM237 305l-148 -211h-20l19 136l119 165h43zM380 42l-48 -42h-274l-36 42l47 42h275z" />
    <glyph glyph-name="bracketleft" unicode="[" 
d="M421 770l-61 -54h-83l-72 84h221zM232 449l-50 -44h-40l55 387l72 -83zM182 91l-96 -83l55 387h39l38 -44zM313 0h-220l95 84h83l46 -54z" />
    <glyph glyph-name="backslash" unicode="\" 
d="M251 405h-43l-124 326l10 69h56l115 -300zM418 0h-56l-115 300l14 95h43l124 -326z" />
    <glyph glyph-name="bracketright" unicode="]" 
d="M419 800l-95 -84h-83l-46 54l4 30h220zM371 405h-39l-38 44l36 260l96 83zM315 8l-72 83l37 260l50 44h40zM307 0h-221l5 30l61 54h83z" />
    <glyph glyph-name="underscore" unicode="_" 
d="M430 42l-48 -42h-264l-36 42l48 42h264z" />
    <glyph glyph-name="a" unicode="a" 
d="M68 42l-47 -42l-36 42l49 353h40l38 -44zM127 449l-50 -44h-41l42 303l49 43l36 -42zM484 758l-48 -42h-263l-36 42l48 42h263zM485 405h-41l-38 44l37 260l47 42l37 -43zM483 395l-49 -353l-48 -42l-36 42l44 309l50 44h39zM434 400l-48 -42h-264l-36 42l47 42h265z" />
    <glyph glyph-name="b" unicode="b" 
d="M79 91l-96 -83l55 387h39l38 -44zM129 449l-50 -44h-40l55 387l72 -83zM486 758l-47 -42h-265l-72 84h348zM492 449l-48 -41l-35 41l36 260l48 42l36 -42zM442 91l-48 -42l-36 42l37 260l47 41l36 -41zM386 42l-48 -42h-348l95 84h265zM436 400l-48 -42h-264l-36 42
l48 42h264z" />
    <glyph glyph-name="c" unicode="c" 
d="M516 664l-48 -42l-36 42l7 45l47 42l36 -42zM480 758l-48 -42h-263l-36 42l48 42h263zM124 449l-50 -44h-40l43 304l47 42l36 -42zM73 91l-47 -42l-36 42l42 304h40l38 -44zM379 42l-48 -42h-263l-36 42l48 42h263zM435 91l-47 -42l-36 42l6 45l48 42l36 -42z" />
    <glyph glyph-name="d" unicode="d" 
d="M129 449l-50 -44h-40l55 387l72 -83zM79 91l-96 -83l55 387h39l38 -44zM386 42l-48 -42h-348l95 84h265zM442 91l-48 -42l-36 42l37 260l50 44h40zM529 709l-43 -304h-40l-37 44l36 260l48 42zM486 758l-47 -42h-265l-72 84h348z" />
    <glyph glyph-name="e" unicode="e" 
d="M501 758l-48 -42h-263l-36 42l48 42h263zM145 449l-50 -44h-40l43 304l48 42l35 -42zM95 91l-48 -42l-36 42l43 304h39l38 -44zM400 42l-47 -42h-264l-36 42l48 42h263zM391 400l-47 -42h-205l-36 42l47 42h205z" />
    <glyph glyph-name="f" unicode="f" 
d="M504 758l-47 -42h-263l-36 42l47 42h263zM148 449l-50 -44h-39l42 304l48 42l36 -42zM395 400l-48 -42h-205l-36 42l48 42h205zM91 42l-47 -42l-36 42l49 353h40l38 -44z" />
    <glyph glyph-name="g" unicode="g" 
d="M499 758l-48 -42h-263l-36 42l48 42h263zM143 449l-50 -44h-40l43 304l48 42l36 -42zM93 91l-48 -42l-36 42l43 304h39l38 -44zM398 42l-47 -42h-264l-35 42l47 42h263zM455 91l-48 -42l-36 42l36 260l96 83zM496 442l-95 -84h-83l-36 42l48 42h166z" />
    <glyph glyph-name="h" unicode="h" 
d="M529 758l-49 -353h-40l-38 44l43 309l48 42zM124 449l-50 -44h-40l50 353l47 42l36 -42zM429 400l-47 -42h-265l-36 42l48 42h264zM428 42l-47 -42l-36 42l43 309l50 44h40zM67 42l-48 -42l-36 42l49 353h40l38 -44z" />
    <glyph glyph-name="i" unicode="i" 
d="M305 449l-48 -41l-36 41l44 309l47 42l36 -42zM247 42l-47 -42l-36 42l43 309l48 41l36 -41z" />
    <glyph glyph-name="j" unicode="j" 
d="M526 758l-49 -353h-40l-38 44l44 309l47 42zM432 91l-47 -42l-36 42l36 260l50 44h40zM375 42l-48 -42h-263l-36 42l48 42h263zM69 91l-47 -42l-36 42l6 45l48 42l36 -42z" />
    <glyph glyph-name="k" unicode="k" 
d="M519 726l-220 -321h-41l-29 34l249 361h52zM123 449l-50 -44h-40l50 353l48 42l36 -42zM247 400l-47 -42h-83l-36 42l48 42h82zM417 0h-51l-148 361l38 34h42l130 -321zM66 42l-48 -42l-36 42l50 353h40l37 -44z" />
    <glyph glyph-name="l" unicode="l" 
d="M195 449l-50 -44h-39l49 353l48 42l36 -42zM145 91l-48 -42l-36 42l43 304h40l37 -44zM451 42l-48 -42h-263l-36 42l48 42h263z" />
    <glyph glyph-name="m" unicode="m" 
d="M529 758l-49 -353h-40l-38 44l43 309l48 42zM407 561l-107 -156h-39l13 90l144 216h10zM251 405h-38l-64 156l21 150h10l83 -216zM124 449l-50 -44h-40l50 353l47 42l36 -42zM428 42l-47 -42l-36 42l43 309l50 44h40zM67 42l-48 -42l-36 42l49 353h40l38 -44z" />
    <glyph glyph-name="n" unicode="n" 
d="M529 758l-49 -353h-40l-38 44l43 309l48 42zM392 451h-54l-176 204l12 81h38l189 -219zM124 449l-50 -44h-40l50 353l47 42l36 -42zM428 42l-47 -42l-36 42l43 309l50 44h40zM67 42l-48 -42l-36 42l49 353h40l38 -44z" />
    <glyph glyph-name="o" unicode="o" 
d="M124 449l-50 -44h-40l43 304l47 42l36 -42zM73 91l-47 -42l-36 42l42 304h40l38 -44zM522 709l-42 -304h-40l-38 44l37 260l47 42zM435 91l-47 -42l-36 42l36 260l50 44h40zM379 42l-48 -42h-263l-36 42l48 42h263zM480 758l-48 -42h-263l-36 42l48 42h263z" />
    <glyph glyph-name="p" unicode="p" 
d="M490 449l-47 -41l-36 41l36 260l48 42l36 -42zM484 758l-47 -42h-265l-72 84h348zM127 449l-50 -44h-40l55 387l72 -83zM434 400l-48 -42h-264l-36 42l48 42h264zM69 42l-48 -42l-36 42l50 353h39l38 -44z" />
    <glyph glyph-name="q" unicode="q" 
d="M124 449l-50 -44h-40l43 304l47 42l36 -42zM73 91l-47 -42l-36 42l42 304h40l38 -44zM522 709l-42 -304h-40l-38 44l37 260l47 42zM435 91l-47 -42l-36 42l36 260l50 44h40zM379 42l-48 -42h-263l-36 42l48 42h263zM480 758l-48 -42h-263l-36 42l48 42h263zM340 95
l-67 142l17 120h15l55 -119z" />
    <glyph glyph-name="r" unicode="r" 
d="M490 449l-47 -41l-36 41l36 260l48 42l36 -42zM484 758l-47 -42h-265l-72 84h348zM127 449l-50 -44h-40l55 387l72 -83zM434 400l-48 -42h-264l-36 42l48 42h264zM427 0h-71l-239 300l7 47h68l241 -303zM69 42l-48 -42l-36 42l50 353h39l38 -44z" />
    <glyph glyph-name="s" unicode="s" 
d="M516 664l-47 -42l-36 42l6 45l48 42l36 -42zM480 758l-47 -42h-264l-35 42l47 42h263zM124 449l-47 -41l-36 41l36 260l48 42l36 -42zM430 400l-48 -42h-264l-36 42l48 42h264zM436 91l-48 -42l-36 42l37 260l47 41l36 -41zM378 42l-47 -42h-263l-36 42l47 42h264zM73 91
l-48 -42l-36 42l7 45l47 42l36 -42z" />
    <glyph glyph-name="t" unicode="t" 
d="M469 758l-48 -42h-122l-42 49l-56 -49h-122l-36 42l48 42h342zM254 449l-48 -41l-36 41l37 260l47 42l36 -42zM197 42l-48 -42l-36 42l43 309l48 41l36 -41z" />
    <glyph glyph-name="u" unicode="u" 
d="M120 449l-50 -44h-39l49 353l48 42l36 -42zM70 91l-48 -42l-36 42l43 304h40l37 -44zM376 42l-48 -42h-263l-36 42l47 42h264zM432 91l-48 -42l-36 42l37 260l50 44h40zM526 758l-50 -353h-40l-37 44l43 309l48 42z" />
    <glyph glyph-name="v" unicode="v" 
d="M508 758l-49 -353h-65l-14 34l45 319l47 42zM102 439l-24 -34h-65l50 353l48 42l36 -42zM450 345l-228 -345h-38l15 104l187 291h71zM173 0h-38l-131 345l7 50h71l106 -291z" />
    <glyph glyph-name="w" unicode="w" 
d="M529 758l-49 -353h-40l-38 44l43 309l48 42zM124 449l-50 -44h-40l50 353l47 42l36 -42zM428 42l-47 -42l-36 42l43 309l50 44h40zM341 89h-10l-84 216l13 90h38l64 -156zM237 305l-144 -216h-10l21 150l107 156h38zM67 42l-48 -42l-36 42l49 353h40l38 -44z" />
    <glyph glyph-name="x" unicode="x" 
d="M520 726l-210 -321h-48l13 90l199 305h57zM251 405h-48l-120 321l11 74h56l114 -305zM418 0h-56l-114 305l13 90h48l120 -321zM237 305l-199 -305h-57l11 74l210 321h48z" />
    <glyph glyph-name="y" unicode="y" 
d="M475 741l-212 -336h-53l12 85l195 310h67zM199 405h-53l-118 336l9 59h66l108 -310zM195 42l-47 -42l-36 42l43 309l48 41l36 -41z" />
    <glyph glyph-name="z" unicode="z" 
d="M490 758l-47 -42h-274l-35 42l47 42h273zM424 570l-119 -165h-43l13 90l148 211h20zM237 305l-148 -211h-20l19 136l119 165h43zM380 42l-48 -42h-274l-36 42l47 42h275z" />
    <glyph glyph-name="bar" unicode="|" 
d="M305 449l-48 -41l-36 41l49 351l48 42l36 -42zM242 0l-48 -42l-36 42l49 351l48 41l36 -41z" />
    <glyph glyph-name="nonbreakingspace" unicode="&#xa0;" 
 />
    <glyph glyph-name="hyphen" unicode="&#x2010;" 
d="M430 400l-48 -42h-264l-36 42l48 42h264z" />
    <glyph glyph-name=".null" horiz-adv-x="0" 
 />
    <glyph glyph-name="nonmarkingreturn" 
 />
  </font>
</defs>
</svg>
